<svg xmlns="http://www.w3.org/2000/svg" xmlns:xlink="http://www.w3.org/1999/xlink" width="1080" zoomAndPan="magnify" viewBox="0 0 810 809.999993" height="1080" preserveAspectRatio="xMidYMid meet" version="1.2"><defs><clipPath id="eafba49109"><path d="M 163 44.039062 L 726 44.039062 L 726 766 L 163 766 Z M 163 44.039062 "/></clipPath></defs><g id="27fbac2e3b"><rect x="0" width="810" y="0" height="809.999993" style="fill:#ffffff;fill-opacity:1;stroke:none;"/><rect x="0" width="810" y="0" height="809.999993" style="fill:#ffffff;fill-opacity:1;stroke:none;"/><g clip-rule="nonzero" clip-path="url(#eafba49109)"><path style=" stroke:none;fill-rule:nonzero;fill:#e623d3;fill-opacity:1;" d="M 529.097656 627.890625 C 529.097656 635.25 526.410156 642.042969 521.738281 647.140625 L 271.5 647.140625 C 254.941406 629.304688 268.671875 598.167969 293.296875 598.734375 C 293.296875 598.734375 499.941406 598.734375 499.941406 598.734375 C 516.078125 598.734375 529.097656 611.753906 529.097656 627.890625 Z M 271.5 666.8125 C 254.941406 684.648438 268.671875 715.785156 293.296875 715.21875 L 499.941406 715.21875 C 524.570312 715.785156 538.300781 684.503906 521.597656 666.8125 Z M 353.734375 765.890625 L 439.648438 765.890625 C 458.046875 765.890625 473.191406 752.445312 476.164062 734.894531 L 317.21875 734.894531 C 320.191406 752.445312 335.335938 765.890625 353.734375 765.890625 Z M 539.574219 476.023438 C 509.285156 502.347656 490.742188 539.429688 486.921875 579.0625 L 424.21875 579.0625 L 424.21875 182.757812 C 424.21875 174.40625 431.296875 167.753906 439.648438 168.460938 C 594.488281 182.191406 654.925781 376.519531 539.574219 476.023438 Z M 567.03125 343.542969 C 567.457031 284.097656 528.390625 228.332031 472.058594 208.941406 C 466.257812 206.820312 459.605469 209.933594 457.621094 215.875 C 455.5 221.820312 458.472656 228.191406 464.417969 230.3125 C 511.691406 246.589844 544.667969 293.4375 544.242188 343.542969 C 544.527344 358.40625 566.890625 358.40625 567.03125 343.542969 Z M 279.003906 511.6875 C 286.363281 504.046875 303.066406 494.136719 309.292969 508.152344 C 311.558594 513.953125 308.585938 520.605469 302.640625 522.871094 C 277.164062 534.476562 290.328125 568.871094 306.179688 579.0625 L 356.988281 579.0625 C 367.886719 571.132812 374.964844 558.394531 374.964844 543.960938 L 374.964844 223.09375 C 374.683594 176.8125 311.273438 163.226562 292.308594 205.261719 C 307.59375 208.234375 352.742188 246.730469 320.332031 253.949219 C 309.574219 253.527344 307.167969 239.230469 298.675781 234.417969 C 256.074219 200.730469 195.496094 246.875 213.894531 295.988281 C 233.144531 292.449219 258.480469 301.929688 271.359375 318.207031 C 277.730469 325.144531 271.925781 337.175781 262.726562 336.890625 C 259.472656 336.890625 256.355469 335.476562 254.09375 332.785156 C 251.121094 329.246094 244.46875 322.738281 233.996094 319.765625 C 226.632812 317.359375 216.445312 317.925781 210.5 319.90625 C 151.761719 337.03125 146.949219 420.539062 202.996094 444.460938 C 210.640625 432.144531 255.367188 398.035156 263.433594 421.953125 C 264.992188 428.039062 261.167969 434.269531 255.226562 435.683594 C 190.683594 451.675781 199.601562 542.261719 266.125 544.101562 C 266.265625 533.0625 269.804688 520.890625 279.003906 511.6875 Z M 576.65625 204.128906 C 579.628906 204.128906 582.457031 202.996094 584.722656 200.875 L 637.234375 148.363281 C 647.566406 137.605469 631.855469 121.894531 621.238281 132.371094 C 621.238281 132.371094 568.730469 184.878906 568.730469 184.878906 C 561.371094 191.53125 566.890625 204.414062 576.65625 204.128906 Z M 713.945312 333.777344 L 639.78125 333.777344 C 624.777344 334.058594 624.917969 356.28125 639.78125 356.421875 L 713.945312 356.421875 C 728.949219 356.28125 728.808594 334.058594 713.945312 333.777344 Z M 584.582031 489.609375 C 573.824219 479.277344 558.113281 494.988281 568.589844 505.601562 L 621.097656 558.113281 C 631.714844 568.585938 647.566406 552.59375 637.089844 542.121094 C 637.089844 541.976562 584.582031 489.609375 584.582031 489.609375 Z M 424.21875 141.003906 C 430.449219 141.003906 435.542969 135.910156 435.542969 129.679688 L 435.542969 55.375 C 435.542969 49.144531 430.449219 44.050781 424.21875 44.050781 C 417.992188 44.050781 412.898438 49.144531 412.898438 55.375 L 412.898438 129.539062 C 412.898438 135.910156 417.992188 141.003906 424.21875 141.003906 Z M 424.21875 141.003906 "/></g></g></svg>