<svg xmlns="http://www.w3.org/2000/svg" xmlns:xlink="http://www.w3.org/1999/xlink" width="1080" zoomAndPan="magnify" viewBox="0 0 810 809.999993" height="1080" preserveAspectRatio="xMidYMid meet" version="1.2"><g id="c47a94edf0"><rect x="0" width="810" y="0" height="809.999993" style="fill:#ffffff;fill-opacity:1;stroke:none;"/><rect x="0" width="810" y="0" height="809.999993" style="fill:#ffffff;fill-opacity:1;stroke:none;"/><path style=" stroke:none;fill-rule:nonzero;fill:#2352d1;fill-opacity:1;" d="M 619.882812 200.164062 C 623.265625 203.546875 626.5625 207.007812 629.773438 210.554688 C 632.984375 214.097656 636.105469 217.714844 639.140625 221.414062 C 642.175781 225.109375 645.117188 228.878906 647.964844 232.71875 C 650.8125 236.5625 653.566406 240.46875 656.222656 244.445312 C 658.878906 248.421875 661.4375 252.460938 663.898438 256.5625 C 666.355469 260.664062 668.710938 264.824219 670.964844 269.042969 C 673.21875 273.261719 675.371094 277.53125 677.414062 281.855469 C 679.460938 286.175781 681.398438 290.546875 683.226562 294.964844 C 685.058594 299.382812 686.777344 303.84375 688.386719 308.347656 C 690 312.851562 691.5 317.390625 692.886719 321.964844 C 694.277344 326.542969 695.550781 331.148438 696.710938 335.789062 C 697.875 340.425781 698.921875 345.09375 699.855469 349.78125 C 700.789062 354.472656 701.605469 359.183594 702.308594 363.914062 C 703.007812 368.644531 703.59375 373.390625 704.0625 378.148438 C 704.53125 382.90625 704.882812 387.675781 705.117188 392.453125 C 705.351562 397.230469 705.46875 402.007812 705.46875 406.789062 C 705.46875 411.574219 705.351562 416.351562 705.117188 421.128906 C 704.882812 425.90625 704.53125 430.671875 704.0625 435.433594 C 703.59375 440.191406 703.007812 444.9375 702.308594 449.667969 C 701.605469 454.398438 700.789062 459.109375 699.855469 463.796875 C 698.921875 468.488281 697.875 473.152344 696.710938 477.792969 C 695.550781 482.429688 694.277344 487.039062 692.886719 491.613281 C 691.5 496.191406 690 500.730469 688.386719 505.234375 C 686.777344 509.734375 685.058594 514.195312 683.226562 518.613281 C 681.398438 523.03125 679.460938 527.402344 677.414062 531.726562 C 675.371094 536.050781 673.21875 540.320312 670.964844 544.539062 C 668.710938 548.753906 666.355469 552.914062 663.898438 557.015625 C 661.4375 561.117188 658.878906 565.160156 656.222656 569.132812 C 653.566406 573.109375 650.8125 577.019531 647.964844 580.859375 C 645.117188 584.703125 642.175781 588.472656 639.140625 592.167969 C 636.105469 595.863281 632.984375 599.484375 629.773438 603.027344 C 626.5625 606.570312 623.265625 610.035156 619.882812 613.414062 C 616.5 616.796875 613.039062 620.09375 609.496094 623.304688 C 605.953125 626.515625 602.332031 629.640625 598.636719 632.671875 C 594.9375 635.707031 591.167969 638.648438 587.328125 641.496094 C 583.488281 644.347656 579.578125 647.097656 575.601562 649.753906 C 571.625 652.414062 567.585938 654.96875 563.484375 657.429688 C 559.382812 659.886719 555.222656 662.242188 551.007812 664.5 C 546.789062 666.753906 542.519531 668.902344 538.195312 670.945312 C 533.871094 672.992188 529.5 674.929688 525.082031 676.757812 C 520.664062 678.589844 516.203125 680.308594 511.703125 681.921875 C 507.199219 683.53125 502.660156 685.03125 498.082031 686.417969 C 493.507812 687.808594 488.898438 689.082031 484.261719 690.246094 C 479.621094 691.40625 474.957031 692.453125 470.265625 693.386719 C 465.574219 694.320312 460.863281 695.136719 456.132812 695.839844 C 451.402344 696.542969 446.660156 697.125 441.898438 697.59375 C 437.140625 698.0625 432.371094 698.414062 427.597656 698.648438 C 422.820312 698.886719 418.039062 699.003906 413.257812 699.003906 C 408.476562 699.003906 403.695312 698.886719 398.921875 698.648438 C 394.144531 698.414062 389.375 698.0625 384.617188 697.59375 C 379.855469 697.125 375.113281 696.542969 370.382812 695.839844 C 365.652344 695.136719 360.941406 694.320312 356.25 693.386719 C 351.558594 692.453125 346.894531 691.40625 342.257812 690.246094 C 337.617188 689.082031 333.011719 687.808594 328.433594 686.417969 C 323.855469 685.03125 319.316406 683.53125 314.816406 681.921875 C 310.3125 680.308594 305.851562 678.589844 301.433594 676.757812 C 297.015625 674.929688 292.644531 672.992188 288.320312 670.945312 C 284 668.902344 279.726562 666.753906 275.511719 664.5 C 271.292969 662.242188 267.132812 659.886719 263.03125 657.429688 C 258.929688 654.96875 254.890625 652.414062 250.914062 649.753906 C 246.9375 647.097656 243.027344 644.347656 239.1875 641.496094 C 235.347656 638.648438 231.578125 635.707031 227.882812 632.671875 C 224.183594 629.640625 220.5625 626.515625 217.019531 623.304688 C 213.476562 620.09375 210.015625 616.796875 206.632812 613.414062 C 203.25 610.035156 199.957031 606.570312 196.742188 603.027344 C 193.53125 599.484375 190.410156 595.863281 187.375 592.167969 C 184.339844 588.472656 181.398438 584.703125 178.550781 580.859375 C 175.703125 577.019531 172.949219 573.109375 170.292969 569.132812 C 167.636719 565.15625 165.078125 561.117188 162.621094 557.015625 C 160.160156 552.914062 157.804688 548.753906 155.550781 544.539062 C 153.296875 540.320312 151.148438 536.050781 149.101562 531.726562 C 147.058594 527.402344 145.121094 523.03125 143.289062 518.613281 C 141.460938 514.195312 139.738281 509.734375 138.128906 505.234375 C 136.515625 500.730469 135.015625 496.191406 133.628906 491.613281 C 132.242188 487.039062 130.964844 482.429688 129.804688 477.792969 C 128.640625 473.152344 127.59375 468.488281 126.660156 463.796875 C 125.726562 459.109375 124.910156 454.398438 124.210938 449.667969 C 123.507812 444.9375 122.921875 440.191406 122.453125 435.433594 C 121.984375 430.671875 121.632812 425.90625 121.398438 421.128906 C 121.164062 416.351562 121.046875 411.574219 121.046875 406.789062 C 121.046875 402.007812 121.164062 397.230469 121.398438 392.453125 C 121.632812 387.675781 121.984375 382.90625 122.453125 378.148438 C 122.921875 373.390625 123.507812 368.644531 124.210938 363.914062 C 124.910156 359.183594 125.726562 354.472656 126.660156 349.78125 C 127.59375 345.09375 128.640625 340.425781 129.804688 335.789062 C 130.964844 331.148438 132.242188 326.542969 133.628906 321.964844 C 135.015625 317.390625 136.515625 312.851562 138.128906 308.347656 C 139.738281 303.84375 141.460938 299.382812 143.289062 294.964844 C 145.121094 290.546875 147.058594 286.175781 149.101562 281.855469 C 151.148438 277.53125 153.296875 273.261719 155.550781 269.042969 C 157.804688 264.824219 160.160156 260.664062 162.621094 256.5625 C 165.078125 252.460938 167.636719 248.421875 170.292969 244.445312 C 172.949219 240.46875 175.703125 236.5625 178.550781 232.71875 C 181.398438 228.878906 184.339844 225.109375 187.375 221.414062 C 190.410156 217.714844 193.53125 214.097656 196.742188 210.554688 C 199.957031 207.007812 203.25 203.546875 206.632812 200.164062 C 210.015625 196.785156 213.476562 193.488281 217.019531 190.277344 C 220.5625 187.0625 224.183594 183.941406 227.882812 180.90625 C 231.578125 177.875 235.347656 174.933594 239.1875 172.082031 C 243.027344 169.234375 246.9375 166.480469 250.914062 163.824219 C 254.890625 161.167969 258.929688 158.609375 263.03125 156.152344 C 267.132812 153.691406 271.292969 151.335938 275.511719 149.082031 C 279.726562 146.828125 284 144.679688 288.320312 142.632812 C 292.644531 140.589844 297.015625 138.652344 301.433594 136.820312 C 305.851562 134.992188 310.3125 133.269531 314.816406 131.660156 C 319.316406 130.050781 323.855469 128.550781 328.433594 127.160156 C 333.011719 125.773438 337.617188 124.496094 342.257812 123.335938 C 346.894531 122.171875 351.558594 121.125 356.25 120.191406 C 360.941406 119.261719 365.652344 118.441406 370.382812 117.742188 C 375.113281 117.039062 379.855469 116.453125 384.617188 115.984375 C 389.375 115.515625 394.144531 115.164062 398.921875 114.929688 C 403.695312 114.695312 408.476562 114.578125 413.257812 114.578125 C 418.039062 114.578125 422.820312 114.695312 427.597656 114.929688 C 432.371094 115.164062 437.140625 115.515625 441.898438 115.984375 C 446.660156 116.453125 451.402344 117.039062 456.132812 117.742188 C 460.863281 118.441406 465.574219 119.261719 470.265625 120.191406 C 474.957031 121.125 479.621094 122.171875 484.261719 123.335938 C 488.898438 124.496094 493.507812 125.773438 498.082031 127.160156 C 502.660156 128.550781 507.199219 130.050781 511.703125 131.660156 C 516.203125 133.269531 520.664062 134.992188 525.082031 136.820312 C 529.5 138.652344 533.871094 140.589844 538.195312 142.632812 C 542.519531 144.679688 546.789062 146.828125 551.007812 149.082031 C 555.222656 151.335938 559.382812 153.691406 563.484375 156.152344 C 567.585938 158.609375 571.625 161.167969 575.601562 163.824219 C 579.578125 166.480469 583.488281 169.234375 587.328125 172.082031 C 591.167969 174.933594 594.9375 177.875 598.636719 180.90625 C 602.332031 183.941406 605.953125 187.0625 609.496094 190.277344 C 613.039062 193.488281 616.5 196.785156 619.882812 200.164062 Z M 619.882812 200.164062 "/><path style=" stroke:none;fill-rule:nonzero;fill:#ffffff;fill-opacity:1;" d="M 655.058594 406.789062 C 655.058594 540.332031 546.800781 648.585938 413.257812 648.585938 C 279.714844 648.585938 171.457031 540.332031 171.457031 406.789062 C 171.457031 273.246094 279.714844 164.992188 413.257812 164.992188 C 546.800781 164.992188 655.058594 273.246094 655.058594 406.789062 Z M 655.058594 406.789062 "/><path style=" stroke:none;fill-rule:nonzero;fill:#2352d1;fill-opacity:1;" d="M 291.28125 498.386719 C 286.578125 498.386719 282.699219 496.910156 279.640625 493.957031 C 276.582031 491.003906 274.820312 487.335938 274.347656 482.945312 C 273.878906 478.558594 275.128906 474.039062 278.113281 469.382812 L 330.09375 390.6875 L 330.09375 409.21875 L 280.230469 333.476562 C 277.25 328.644531 275.957031 324.035156 276.347656 319.644531 C 276.738281 315.257812 278.464844 311.589844 281.523438 308.632812 C 284.582031 305.679688 288.378906 304.203125 292.929688 304.203125 C 296.847656 304.203125 300.257812 305.277344 303.164062 307.425781 C 306.0625 309.574219 309.003906 312.980469 311.984375 317.628906 L 350.792969 378.867188 L 339.035156 378.867188 L 377.605469 317.628906 C 380.582031 312.796875 383.5625 309.351562 386.546875 307.289062 C 389.523438 305.234375 392.972656 304.203125 396.894531 304.203125 C 401.597656 304.203125 405.480469 305.636719 408.539062 308.5 C 411.59375 311.367188 413.320312 314.992188 413.710938 319.378906 C 414.101562 323.765625 412.730469 328.464844 409.597656 333.476562 L 359.496094 409.21875 L 359.496094 390.6875 L 411.242188 469.382812 C 414.378906 474.039062 415.75 478.558594 415.359375 482.945312 C 414.964844 487.335938 413.242188 491.003906 410.183594 493.957031 C 407.128906 496.910156 403.164062 498.386719 398.308594 498.386719 C 394.542969 498.386719 391.210938 497.3125 388.308594 495.164062 C 385.40625 493.015625 382.386719 489.523438 379.253906 484.6875 L 338.796875 421.035156 L 350.792969 421.035156 L 310.339844 484.6875 C 307.359375 489.523438 304.375 493.015625 301.398438 495.164062 C 298.421875 497.3125 295.050781 498.386719 291.285156 498.386719 Z M 460.398438 498.386719 C 454.433594 498.386719 449.890625 496.507812 446.757812 492.75 C 443.617188 488.988281 442.050781 483.710938 442.050781 476.902344 L 442.050781 327.839844 C 442.050781 320.859375 443.65625 315.578125 446.871094 311.996094 C 450.085938 308.414062 454.671875 306.625 460.632812 306.625 L 517.789062 306.625 C 536.289062 306.625 550.558594 311.953125 560.597656 322.601562 C 570.628906 333.257812 575.648438 348.078125 575.648438 367.054688 C 575.648438 386.027344 570.628906 400.894531 560.597656 411.636719 C 550.558594 422.382812 536.289062 427.753906 517.789062 427.753906 L 478.507812 427.753906 L 478.507812 476.902344 C 478.507812 483.710938 476.980469 488.988281 473.921875 492.75 C 470.867188 496.507812 466.355469 498.386719 460.398438 498.386719 Z M 478.507812 395.519531 L 511.671875 395.519531 C 521.082031 395.519531 528.253906 393.105469 533.195312 388.269531 C 538.132812 383.4375 540.605469 376.367188 540.605469 367.054688 C 540.605469 357.742188 538.132812 350.761719 533.195312 346.105469 C 528.253906 341.449219 521.082031 339.121094 511.671875 339.121094 L 478.507812 339.121094 L 478.507812 395.523438 Z M 478.507812 395.519531 "/><path style=" stroke:none;fill-rule:nonzero;fill:#2352d1;fill-opacity:1;" d="M 413.257812 703.839844 C 373.160156 703.839844 334.257812 695.984375 297.628906 680.492188 C 280.027344 673.046875 263.050781 663.835938 247.167969 653.105469 C 231.441406 642.480469 216.648438 630.273438 203.207031 616.832031 C 189.765625 603.390625 177.5625 588.601562 166.9375 572.875 C 156.207031 556.996094 146.992188 540.019531 139.546875 522.417969 C 124.054688 485.792969 116.199219 446.890625 116.199219 406.789062 C 116.199219 366.691406 124.054688 327.789062 139.546875 291.160156 C 146.992188 273.558594 156.207031 256.582031 166.9375 240.699219 C 177.5625 224.972656 189.765625 210.179688 203.207031 196.738281 C 216.648438 183.296875 231.4375 171.097656 247.167969 160.46875 C 263.046875 149.742188 280.023438 140.523438 297.628906 133.078125 C 334.253906 117.589844 373.15625 109.734375 413.257812 109.734375 C 453.359375 109.734375 492.257812 117.589844 528.886719 133.078125 C 546.488281 140.523438 563.464844 149.738281 579.347656 160.46875 C 595.074219 171.09375 609.863281 183.296875 623.304688 196.738281 C 636.75 210.179688 648.949219 224.96875 659.578125 240.699219 C 670.304688 256.578125 679.519531 273.558594 686.96875 291.160156 C 702.457031 327.785156 710.3125 366.6875 710.3125 406.789062 C 710.3125 446.890625 702.457031 485.792969 686.96875 522.417969 C 679.519531 540.019531 670.308594 556.996094 659.578125 572.875 C 648.953125 588.601562 636.75 603.394531 623.304688 616.832031 C 609.863281 630.273438 595.078125 642.476562 579.347656 653.105469 C 563.464844 663.832031 546.488281 673.046875 528.886719 680.492188 C 492.261719 695.984375 453.359375 703.839844 413.257812 703.839844 Z M 413.257812 119.414062 C 254.796875 119.414062 125.878906 248.328125 125.878906 406.789062 C 125.878906 565.25 254.796875 694.164062 413.257812 694.164062 C 571.71875 694.164062 700.636719 565.25 700.636719 406.789062 C 700.636719 248.332031 571.71875 119.414062 413.257812 119.414062 Z M 413.257812 119.414062 "/><path style=" stroke:none;fill-rule:nonzero;fill:#2352d1;fill-opacity:1;" d="M 413.257812 653.425781 C 379.964844 653.425781 347.664062 646.902344 317.253906 634.042969 C 287.886719 621.621094 261.507812 603.839844 238.859375 581.191406 C 216.210938 558.539062 198.429688 532.164062 186.003906 502.796875 C 173.140625 472.386719 166.617188 440.085938 166.617188 406.792969 C 166.617188 373.5 173.140625 341.199219 186.003906 310.789062 C 198.425781 281.421875 216.210938 255.042969 238.859375 232.394531 C 261.507812 209.746094 287.882812 191.960938 317.253906 179.539062 C 347.664062 166.675781 379.964844 160.152344 413.257812 160.152344 C 446.550781 160.152344 478.851562 166.671875 509.261719 179.539062 C 538.628906 191.960938 565.007812 209.746094 587.65625 232.394531 C 610.308594 255.042969 628.089844 281.417969 640.511719 310.789062 C 653.375 341.199219 659.898438 373.5 659.898438 406.792969 C 659.898438 440.085938 653.378906 472.386719 640.511719 502.796875 C 628.089844 532.164062 610.308594 558.539062 587.65625 581.191406 C 565.007812 603.839844 538.632812 621.621094 509.261719 634.042969 C 478.851562 646.902344 446.550781 653.425781 413.257812 653.425781 Z M 413.257812 169.828125 C 282.59375 169.828125 176.296875 276.128906 176.296875 406.789062 C 176.296875 537.453125 282.597656 643.75 413.257812 643.75 C 543.917969 643.75 650.222656 537.449219 650.222656 406.789062 C 650.222656 276.128906 543.921875 169.828125 413.257812 169.828125 Z M 413.257812 169.828125 "/><path style=" stroke:none;fill-rule:nonzero;fill:#2352d1;fill-opacity:1;" d="M 560.601562 322.601562 L 564.121094 319.285156 C 561.355469 316.355469 558.289062 313.773438 554.9375 311.570312 C 549.90625 308.265625 544.246094 305.808594 538.042969 304.191406 C 531.832031 302.574219 525.078125 301.785156 517.792969 301.785156 L 460.636719 301.785156 C 457.175781 301.785156 453.925781 302.304688 450.964844 303.460938 C 449.492188 304.035156 448.089844 304.773438 446.800781 305.664062 C 445.511719 306.550781 444.328125 307.59375 443.277344 308.761719 C 442.210938 309.949219 441.289062 311.269531 440.519531 312.6875 C 439.355469 314.820312 438.535156 317.175781 438 319.703125 C 437.464844 322.234375 437.21875 324.945312 437.21875 327.839844 L 437.21875 476.902344 C 437.21875 480.675781 437.648438 484.15625 438.59375 487.34375 C 439.066406 488.9375 439.667969 490.453125 440.410156 491.878906 C 441.152344 493.300781 442.03125 494.632812 443.046875 495.851562 C 444.074219 497.078125 445.234375 498.175781 446.515625 499.117188 C 448.4375 500.53125 450.621094 501.578125 452.960938 502.246094 C 455.300781 502.917969 457.792969 503.226562 460.410156 503.226562 C 462.152344 503.226562 463.835938 503.089844 465.457031 502.800781 C 467.890625 502.363281 470.1875 501.570312 472.265625 500.394531 C 474.339844 499.21875 476.175781 497.660156 477.683594 495.800781 C 478.675781 494.585938 479.53125 493.253906 480.253906 491.832031 C 481.332031 489.699219 482.109375 487.367188 482.613281 484.875 C 483.117188 482.378906 483.355469 479.722656 483.355469 476.898438 L 483.355469 432.585938 L 517.796875 432.585938 C 527.511719 432.585938 536.296875 431.179688 544.078125 428.25 C 547.96875 426.78125 551.601562 424.941406 554.957031 422.71875 C 558.308594 420.496094 561.375 417.894531 564.136719 414.9375 C 569.644531 409.046875 573.769531 402 576.472656 393.980469 C 579.183594 385.953125 580.492188 376.964844 580.492188 367.050781 C 580.492188 357.136719 579.183594 348.160156 576.472656 340.152344 C 573.769531 332.152344 569.636719 325.132812 564.125 319.285156 C 564.125 319.285156 560.601562 322.601562 560.601562 322.601562 L 557.082031 325.917969 C 559.34375 328.320312 561.320312 330.949219 563.023438 333.835938 C 565.578125 338.15625 567.519531 343.050781 568.835938 348.574219 C 570.144531 354.097656 570.820312 360.253906 570.820312 367.050781 C 570.820312 376.117188 569.621094 384.046875 567.3125 390.886719 C 564.996094 397.726562 561.597656 403.480469 557.070312 408.335938 C 554.816406 410.75 552.335938 412.847656 549.609375 414.65625 C 545.523438 417.363281 540.878906 419.417969 535.59375 420.808594 C 530.3125 422.199219 524.382812 422.917969 517.796875 422.917969 L 478.515625 422.917969 C 477.242188 422.917969 475.996094 423.433594 475.097656 424.335938 C 474.195312 425.234375 473.679688 426.480469 473.679688 427.753906 L 473.679688 476.902344 C 473.679688 479.945312 473.332031 482.519531 472.722656 484.625 C 472.417969 485.679688 472.046875 486.617188 471.621094 487.457031 C 471.195312 488.296875 470.714844 489.035156 470.175781 489.699219 C 469.65625 490.339844 469.09375 490.878906 468.472656 491.34375 C 467.539062 492.03125 466.46875 492.570312 465.148438 492.953125 C 463.832031 493.335938 462.257812 493.554688 460.402344 493.554688 C 459.167969 493.554688 458.050781 493.460938 457.046875 493.28125 C 455.542969 493.007812 454.304688 492.5625 453.246094 491.96875 C 452.1875 491.371094 451.292969 490.628906 450.476562 489.65625 C 449.925781 488.988281 449.429688 488.25 448.996094 487.414062 C 448.34375 486.160156 447.816406 484.683594 447.457031 482.9375 C 447.09375 481.191406 446.894531 479.179688 446.894531 476.90625 L 446.894531 327.839844 C 446.894531 324.722656 447.257812 322.121094 447.890625 320.050781 C 448.207031 319.015625 448.585938 318.109375 449.019531 317.3125 C 449.453125 316.515625 449.933594 315.832031 450.480469 315.226562 C 451.035156 314.605469 451.632812 314.085938 452.289062 313.628906 C 453.277344 312.949219 454.410156 312.421875 455.785156 312.042969 C 457.15625 311.671875 458.765625 311.457031 460.640625 311.457031 L 517.796875 311.457031 C 526.585938 311.457031 534.195312 312.722656 540.683594 315.148438 C 543.933594 316.363281 546.902344 317.863281 549.628906 319.652344 C 552.355469 321.441406 554.832031 323.523438 557.085938 325.917969 C 557.085938 325.917969 560.609375 322.601562 560.609375 322.601562 Z M 533.195312 388.273438 L 529.8125 384.816406 C 528.851562 385.753906 527.785156 386.578125 526.589844 387.296875 C 524.792969 388.371094 522.691406 389.214844 520.214844 389.792969 C 517.742188 390.375 514.894531 390.6875 511.675781 390.6875 L 483.351562 390.6875 L 483.351562 343.960938 L 511.675781 343.960938 C 515.984375 343.960938 519.628906 344.496094 522.621094 345.46875 C 524.117188 345.953125 525.460938 346.550781 526.660156 347.238281 C 527.863281 347.933594 528.925781 348.722656 529.882812 349.621094 L 529.878906 349.621094 C 530.820312 350.511719 531.644531 351.503906 532.359375 352.628906 C 533.433594 354.320312 534.28125 356.320312 534.867188 358.714844 C 535.453125 361.105469 535.773438 363.882812 535.773438 367.054688 C 535.773438 371.285156 535.207031 374.835938 534.1875 377.746094 C 533.679688 379.203125 533.058594 380.503906 532.332031 381.671875 C 531.605469 382.84375 530.769531 383.878906 529.8125 384.816406 L 533.195312 388.277344 L 536.578125 391.734375 C 538.089844 390.253906 539.421875 388.597656 540.546875 386.785156 C 542.234375 384.070312 543.464844 381.027344 544.265625 377.726562 C 545.066406 374.429688 545.445312 370.867188 545.445312 367.054688 C 545.445312 361.976562 544.773438 357.355469 543.3125 353.222656 C 542.582031 351.160156 541.65625 349.222656 540.519531 347.4375 C 539.382812 345.65625 538.042969 344.027344 536.515625 342.589844 L 536.511719 342.589844 C 535 341.160156 533.316406 339.914062 531.488281 338.863281 C 528.746094 337.28125 525.691406 336.136719 522.382812 335.386719 C 519.070312 334.640625 515.503906 334.289062 511.675781 334.289062 L 478.511719 334.289062 C 477.238281 334.289062 475.988281 334.804688 475.089844 335.707031 C 474.191406 336.605469 473.671875 337.851562 473.671875 339.125 L 473.671875 395.527344 C 473.671875 396.800781 474.191406 398.046875 475.089844 398.945312 C 475.992188 399.847656 477.238281 400.363281 478.511719 400.363281 L 511.675781 400.363281 C 516.792969 400.363281 521.460938 399.710938 525.65625 398.300781 C 527.75 397.59375 529.726562 396.695312 531.558594 395.597656 C 533.386719 394.503906 535.070312 393.210938 536.578125 391.730469 Z M 533.195312 388.273438 "/><path style=" stroke:none;fill-rule:nonzero;fill:#2352d1;fill-opacity:1;" d="M 398.304688 503.226562 C 393.5 503.226562 389.167969 501.824219 385.429688 499.054688 C 382.03125 496.539062 378.683594 492.703125 375.195312 487.324219 L 375.167969 487.285156 L 344.792969 439.492188 L 314.433594 487.257812 C 311.097656 492.667969 307.757812 496.539062 304.226562 499.085938 C 300.414062 501.835938 296.0625 503.226562 291.28125 503.226562 C 285.304688 503.226562 280.257812 501.277344 276.277344 497.4375 C 272.394531 493.6875 270.128906 488.988281 269.535156 483.460938 C 268.945312 477.972656 270.460938 472.359375 274.035156 466.773438 L 274.074219 466.714844 L 318.1875 399.933594 L 276.1875 336.140625 C 276.160156 336.097656 276.136719 336.058594 276.109375 336.019531 C 272.582031 330.292969 271.042969 324.640625 271.53125 319.214844 C 272.023438 313.664062 274.257812 308.933594 278.160156 305.160156 C 282.136719 301.316406 287.105469 299.367188 292.929688 299.367188 C 297.890625 299.367188 302.304688 300.773438 306.039062 303.542969 C 309.445312 306.0625 312.722656 309.820312 316.054688 315.027344 L 344.882812 360.507812 L 373.5 315.078125 C 376.859375 309.625 380.226562 305.78125 383.792969 303.316406 C 387.582031 300.699219 391.992188 299.371094 396.890625 299.371094 C 402.835938 299.371094 407.867188 301.257812 411.839844 304.972656 C 415.777344 308.660156 418.027344 313.363281 418.53125 318.945312 C 419.011719 324.398438 417.386719 330.148438 413.699219 336.046875 C 413.675781 336.085938 413.652344 336.117188 413.632812 336.152344 L 371.402344 399.992188 L 415.269531 466.703125 C 419.011719 472.273438 420.664062 477.878906 420.175781 483.375 C 419.679688 488.933594 417.449219 493.664062 413.546875 497.433594 C 409.566406 501.277344 404.4375 503.226562 398.308594 503.226562 Z M 383.320312 482.078125 C 386.125 486.394531 388.769531 489.488281 391.1875 491.277344 C 393.25 492.808594 395.582031 493.554688 398.304688 493.554688 C 401.894531 493.554688 404.679688 492.546875 406.820312 490.480469 C 409.03125 488.34375 410.25 485.738281 410.535156 482.519531 C 410.824219 479.242188 409.746094 475.828125 407.222656 472.085938 L 407.195312 472.039062 L 361.5625 402.640625 C 360.5 401.023438 360.503906 398.929688 361.570312 397.316406 L 405.523438 330.867188 C 408.050781 326.808594 409.183594 323.089844 408.890625 319.804688 C 408.605469 316.617188 407.402344 314.074219 405.226562 312.03125 C 403.078125 310.019531 400.351562 309.042969 396.890625 309.042969 C 393.949219 309.042969 391.464844 309.773438 389.289062 311.273438 C 386.878906 312.941406 384.332031 315.933594 381.722656 320.171875 L 381.699219 320.210938 L 348.984375 372.140625 C 348.101562 373.546875 346.558594 374.398438 344.898438 374.398438 L 344.894531 374.398438 C 343.238281 374.398438 341.695312 373.550781 340.808594 372.152344 L 307.894531 320.222656 C 305.257812 316.101562 302.695312 313.101562 300.28125 311.316406 C 298.21875 309.785156 295.8125 309.042969 292.929688 309.042969 C 289.65625 309.042969 287.023438 310.046875 284.882812 312.113281 C 282.667969 314.253906 281.453125 316.859375 281.167969 320.078125 C 280.871094 323.367188 281.929688 327 284.3125 330.882812 L 328.023438 397.277344 C 329.089844 398.894531 329.085938 400.988281 328.019531 402.601562 L 282.167969 472.015625 C 279.792969 475.742188 278.804688 479.148438 279.15625 482.425781 C 279.507812 485.679688 280.765625 488.316406 283 490.476562 C 285.140625 492.542969 287.851562 493.546875 291.28125 493.546875 C 294.027344 493.546875 296.414062 492.792969 298.570312 491.238281 C 301.015625 489.46875 303.589844 486.410156 306.21875 482.144531 L 306.257812 482.089844 L 340.714844 427.875 C 341.601562 426.480469 343.140625 425.632812 344.796875 425.632812 C 346.453125 425.632812 347.992188 426.480469 348.878906 427.875 L 383.324219 482.070312 Z M 415.355469 482.949219 Z M 415.355469 482.949219 "/></g></svg>