<svg xmlns="http://www.w3.org/2000/svg" xmlns:xlink="http://www.w3.org/1999/xlink" width="117" zoomAndPan="magnify" viewBox="0 0 87.75 119.999999" height="160" preserveAspectRatio="xMidYMid meet" version="1.0"><defs><clipPath id="a5c70bbdb9"><path d="M 9.203125 36.289062 L 78.753906 36.289062 L 78.753906 83.40625 L 9.203125 83.40625 Z M 9.203125 36.289062 " clip-rule="nonzero"/></clipPath></defs><g clip-path="url(#a5c70bbdb9)"><path fill="#000000" d="M 73.644531 54.757812 L 26.707031 54.757812 C 26.707031 54.757812 36.597656 45.003906 36.859375 44.671875 C 37.535156 43.808594 37.945312 42.722656 37.945312 41.542969 C 37.945312 40.238281 37.449219 39.054688 36.640625 38.152344 L 36.222656 37.738281 C 35.316406 36.933594 34.121094 36.441406 32.808594 36.441406 C 31.460938 36.441406 30.234375 36.964844 29.320312 37.808594 C 29.320312 37.808594 10.382812 56.597656 10.285156 56.722656 C 9.613281 57.585938 9.210938 58.660156 9.210938 59.835938 C 9.210938 61.007812 9.613281 62.082031 10.28125 62.945312 C 10.554688 63.292969 29.554688 82.09375 29.554688 82.09375 C 30.4375 82.804688 31.558594 83.230469 32.78125 83.230469 C 35.617188 83.230469 37.917969 80.945312 37.917969 78.128906 C 37.917969 76.894531 37.476562 75.761719 36.738281 74.878906 L 26.707031 64.910156 L 73.644531 64.910156 C 76.46875 64.910156 78.753906 62.636719 78.753906 59.835938 C 78.753906 57.03125 76.46875 54.757812 73.644531 54.757812 " fill-opacity="1" fill-rule="nonzero"/></g></svg>