<?xml version="1.0" standalone="no"?>
<!DOCTYPE svg PUBLIC "-//W3C//DTD SVG 20010904//EN"
 "http://www.w3.org/TR/2001/REC-SVG-20010904/DTD/svg10.dtd">
<svg version="1.0" xmlns="http://www.w3.org/2000/svg"
 width="366.000000pt" height="500.000000pt" viewBox="0 0 366.000000 500.000000"
 preserveAspectRatio="xMidYMid meet">

<g transform="translate(0.000000,500.000000) scale(0.100000,-0.100000)"
fill="#000000" stroke="none">
<path d="M2205 3451 c-115 -53 -161 -186 -102 -296 8 -16 108 -122 221 -235
l206 -205 -998 -5 -998 -5 -49 -26 c-98 -50 -140 -161 -101 -264 21 -53 81
-110 133 -124 26 -7 363 -11 1033 -11 l995 -1 -217 -212 c-254 -249 -271 -275
-247 -386 26 -124 174 -197 297 -145 47 19 858 824 878 871 20 45 17 130 -5
178 -28 59 -812 837 -872 864 -55 26 -122 26 -174 2z"/>
</g>
</svg>
